<svg xmlns="http://www.w3.org/2000/svg" version="1.1" xmlns:xlink="http://www.w3.org/1999/xlink" xmlns:svgjs="http://svgjs.com/svgjs" width="1024.000000pt" height="1024.000000pt"><svg version="1.0" width="1024.000000pt" height="1024.000000pt" viewBox="0 39.385 1011.295 950.312" preserveAspectRatio="xMidYMid meet" xmlns="http://www.w3.org/2000/svg">
  <g transform="matrix(0.216007, 0, 0, -0.216007, -588.246033, 1741.712891)" fill="#000000" stroke="none" style="--darkreader-inline-fill:#000000; --darkreader-inline-stroke:none;" data-darkreader-inline-fill="" data-darkreader-inline-stroke="">
    <path d="M 4846.339 7699.932 C 4748.339 7692.932 4696.339 7683.932 4606.339 7655.932 C 4490.339 7619.932 4462.339 7612.932 4371.339 7589.932 C 4283.339 7567.932 4021.339 7442.932 3956.339 7391.932 C 3937.339 7375.932 3910.339 7359.932 3896.339 7355.932 C 3853.339 7342.932 3788.339 7301.932 3782.339 7282.932 C 3779.339 7273.932 3760.339 7256.932 3739.339 7245.932 C 3680.339 7213.932 3652.339 7188.932 3667.339 7180.932 C 3675.339 7175.932 3666.339 7164.932 3638.339 7146.932 C 3616.339 7132.932 3578.339 7102.932 3553.339 7078.932 C 3529.339 7054.932 3502.339 7030.932 3495.339 7024.932 C 3448.339 6985.932 3316.339 6824.932 3316.339 6806.932 C 3316.339 6800.932 3296.339 6773.932 3271.339 6747.932 C 3246.339 6720.932 3223.339 6687.932 3220.339 6674.932 C 3217.339 6661.932 3210.339 6650.932 3206.339 6650.932 C 3201.339 6650.932 3183.339 6624.932 3166.339 6593.932 C 3148.339 6561.932 3128.339 6528.932 3121.339 6520.932 C 3114.339 6512.932 3106.339 6493.932 3102.339 6479.932 C 3099.339 6464.932 3071.339 6400.932 3040.339 6335.932 C 3003.339 6256.932 2986.339 6209.932 2989.339 6192.932 C 2992.339 6176.932 2985.339 6155.932 2970.339 6132.932 C 2957.339 6113.932 2946.339 6085.932 2946.339 6070.932 C 2946.339 6056.932 2939.339 6024.932 2931.339 5999.932 C 2915.339 5951.932 2892.339 5808.932 2872.339 5635.932 C 2855.339 5488.932 2868.339 5258.932 2903.339 5095.932 C 2917.339 5029.932 2930.339 4950.932 2933.339 4920.932 C 2935.339 4890.932 2941.339 4856.932 2946.339 4845.932 C 2958.339 4819.932 2983.339 4750.932 3007.339 4675.932 C 3018.339 4642.932 3037.339 4593.932 3050.339 4565.932 C 3063.339 4538.932 3079.339 4495.932 3086.339 4471.932 C 3103.339 4408.932 3135.339 4380.932 3189.339 4380.932 C 3248.339 4380.932 3282.339 4407.932 3288.339 4457.932 C 3292.339 4487.932 3286.339 4505.932 3259.339 4547.932 C 3241.339 4576.932 3226.339 4602.932 3226.339 4605.932 C 3226.339 4609.932 3218.339 4624.932 3207.339 4638.932 C 3197.339 4653.932 3177.339 4699.932 3163.339 4741.932 C 3149.339 4784.932 3133.339 4826.932 3127.339 4836.932 C 3122.339 4847.932 3113.339 4884.932 3107.339 4920.932 C 3102.339 4956.932 3086.339 5054.932 3071.339 5139.932 C 3039.339 5332.932 3033.339 5601.932 3059.339 5715.932 C 3068.339 5754.932 3082.339 5828.932 3091.339 5880.932 C 3116.339 6025.932 3129.339 6084.932 3136.339 6095.932 C 3140.339 6101.932 3149.339 6123.932 3156.339 6145.932 C 3174.339 6202.932 3345.339 6548.932 3375.339 6590.932 C 3413.339 6641.932 3521.339 6769.932 3567.339 6815.932 C 3588.339 6837.932 3606.339 6860.932 3606.339 6865.932 C 3606.339 6881.932 3784.339 7060.932 3799.339 7060.932 C 3806.339 7060.932 3825.339 7074.932 3842.339 7091.932 C 3877.339 7128.932 4017.339 7222.932 4069.339 7244.932 C 4090.339 7252.932 4126.339 7273.932 4149.339 7289.932 C 4172.339 7305.932 4236.339 7335.932 4291.339 7355.932 C 4346.339 7375.932 4420.339 7402.932 4456.339 7416.932 C 4724.339 7515.932 5185.339 7547.932 5431.339 7482.932 C 5453.339 7476.932 5505.339 7464.932 5546.339 7454.932 C 5741.339 7409.932 5988.339 7311.932 6061.339 7249.932 C 6072.339 7240.932 6092.339 7230.932 6106.339 7227.932 C 6120.339 7223.932 6140.339 7213.932 6151.339 7203.932 C 6162.339 7193.932 6209.339 7159.932 6256.339 7128.932 C 6303.339 7097.932 6362.339 7052.932 6388.339 7028.932 C 6447.339 6973.932 6626.339 6772.932 6626.339 6760.932 C 6626.339 6755.932 6646.339 6732.932 6671.339 6709.932 C 6696.339 6686.932 6716.339 6663.932 6716.339 6658.932 C 6716.339 6651.932 6761.339 6579.932 6817.339 6498.932 C 6828.339 6483.932 6845.339 6448.932 6856.339 6419.932 C 6867.339 6391.932 6902.339 6315.932 6933.339 6251.932 C 7009.339 6092.932 7027.339 6039.932 7042.339 5935.932 C 7045.339 5908.932 7052.339 5863.932 7057.339 5835.932 C 7066.339 5781.932 7068.339 5753.932 7081.339 5524.932 C 7086.339 5423.932 7085.339 5343.932 7077.339 5279.932 C 7071.339 5227.932 7064.339 5156.932 7061.339 5120.932 C 7058.339 5084.932 7049.339 5029.932 7041.339 4997.932 C 7033.339 4965.932 7026.339 4928.932 7026.339 4915.932 C 7026.339 4902.932 7022.339 4888.932 7016.339 4885.932 C 7011.339 4882.932 7006.339 4863.932 7006.339 4844.932 C 7006.339 4825.932 7002.339 4810.932 6997.339 4810.932 C 6985.339 4810.932 6963.339 4743.932 6971.339 4730.932 C 6974.339 4725.932 6963.339 4708.932 6947.339 4693.932 C 6911.339 4659.932 6866.339 4548.932 6866.339 4492.932 C 6866.339 4436.932 6907.339 4386.932 6947.339 4394.932 C 6993.339 4403.932 7054.339 4452.932 7061.339 4485.932 C 7068.339 4518.932 7110.339 4637.932 7130.339 4685.932 C 7142.339 4711.932 7175.339 4816.932 7207.339 4926.932 C 7212.339 4943.932 7220.339 4990.932 7226.339 5031.932 C 7231.339 5072.932 7241.339 5132.932 7248.339 5165.932 C 7265.339 5248.932 7265.339 5680.932 7248.339 5785.932 C 7221.339 5943.932 7195.339 6073.932 7182.339 6109.932 C 7174.339 6129.932 7156.339 6177.932 7141.339 6215.932 C 7126.339 6254.932 7100.339 6323.932 7082.339 6370.932 C 7042.339 6478.932 6985.339 6583.932 6919.339 6674.932 C 6890.339 6713.932 6866.339 6750.932 6866.339 6757.932 C 6866.339 6764.932 6857.339 6774.932 6846.339 6780.932 C 6835.339 6786.932 6826.339 6795.932 6826.339 6800.932 C 6826.339 6810.932 6777.339 6874.932 6693.339 6976.932 C 6670.339 7005.932 6618.339 7056.932 6579.339 7090.932 C 6539.339 7125.932 6506.339 7156.932 6506.339 7160.932 C 6506.339 7171.932 6327.339 7308.932 6261.339 7347.932 C 6118.339 7432.932 5962.339 7514.932 5926.339 7525.932 C 5912.339 7529.932 5885.339 7542.932 5866.339 7554.932 C 5847.339 7565.932 5811.339 7580.932 5786.339 7587.932 C 5761.339 7593.932 5723.339 7604.932 5701.339 7610.932 C 5679.339 7616.932 5644.339 7625.932 5622.339 7630.932 C 5601.339 7634.932 5580.339 7644.932 5576.339 7651.932 C 5568.339 7663.932 5472.339 7680.932 5296.339 7700.932 C 5197.339 7711.932 5024.339 7711.932 4846.339 7699.932 Z" style="stroke: rgb(0, 0, 0); stroke-width: 130px; --darkreader-inline-stroke:#e8e6e3;" data-darkreader-inline-stroke=""></path>
    <path d="M 5026.339 7193.932 C 5007.339 7191.932 4951.339 7183.932 4901.339 7174.932 C 4852.339 7166.932 4774.339 7153.932 4730.339 7145.932 C 4685.339 7138.932 4639.339 7127.932 4628.339 7121.932 C 4617.339 7115.932 4596.339 7110.932 4582.339 7110.932 C 4568.339 7110.932 4542.339 7104.932 4524.339 7096.932 C 4506.339 7088.932 4456.339 7068.932 4413.339 7051.932 C 4370.339 7035.932 4319.339 7008.932 4298.339 6992.932 C 4278.339 6976.932 4230.339 6946.932 4191.339 6925.932 C 4121.339 6887.932 4009.339 6799.932 3974.339 6755.932 C 3964.339 6742.932 3939.339 6721.932 3918.339 6709.932 C 3876.339 6685.932 3758.339 6555.932 3712.339 6483.932 C 3696.339 6456.932 3668.339 6413.932 3650.339 6385.932 C 3615.339 6330.932 3555.339 6221.932 3521.339 6150.932 C 3494.339 6095.932 3430.339 5892.932 3417.339 5825.932 C 3408.339 5778.932 3409.339 5775.932 3441.339 5743.932 C 3477.339 5707.932 3502.339 5702.932 3545.339 5725.932 C 3576.339 5740.932 3588.339 5766.932 3629.339 5895.932 C 3685.339 6073.932 3718.339 6156.932 3751.339 6201.932 C 3770.339 6228.932 3792.339 6264.932 3800.339 6283.932 C 3807.339 6302.932 3841.339 6348.932 3873.339 6386.932 C 3906.339 6424.932 3941.339 6470.932 3950.339 6488.932 C 3959.339 6506.932 3970.339 6520.932 3975.339 6520.932 C 3979.339 6520.932 4025.339 6560.932 4077.339 6610.932 C 4132.339 6662.932 4185.339 6704.932 4206.339 6711.932 C 4225.339 6717.932 4254.339 6736.932 4271.339 6752.932 C 4287.339 6769.932 4325.339 6794.932 4356.339 6809.932 C 4452.339 6857.932 4481.339 6873.932 4491.339 6886.932 C 4497.339 6892.932 4524.339 6902.932 4551.339 6908.932 C 4579.339 6914.932 4633.339 6928.932 4671.339 6940.932 C 4959.339 7026.932 5215.339 7021.932 5526.339 6922.932 C 5573.339 6907.932 5613.339 6895.932 5616.339 6894.932 C 5633.339 6891.932 5696.339 6859.932 5701.339 6850.932 C 5704.339 6845.932 5727.339 6832.932 5751.339 6821.932 C 5775.339 6810.932 5815.339 6788.932 5838.339 6772.932 C 5862.339 6756.932 5903.339 6732.932 5929.339 6720.932 C 5955.339 6708.932 6007.339 6668.932 6046.339 6631.932 C 6084.339 6595.932 6139.339 6542.932 6169.339 6514.932 C 6200.339 6486.932 6232.339 6447.932 6241.339 6429.932 C 6251.339 6410.932 6269.339 6382.932 6282.339 6367.932 C 6295.339 6351.932 6306.339 6333.932 6306.339 6326.932 C 6306.339 6319.932 6320.339 6304.932 6337.339 6291.932 C 6354.339 6279.932 6376.339 6249.932 6386.339 6226.932 C 6396.339 6202.932 6423.339 6143.932 6446.339 6095.932 C 6495.339 5993.932 6523.339 5903.932 6536.339 5810.932 C 6541.339 5774.932 6552.339 5693.932 6561.339 5630.932 C 6573.339 5552.932 6576.339 5484.932 6572.339 5415.932 C 6569.339 5360.932 6566.339 5304.932 6565.339 5290.932 C 6558.339 5172.932 6520.339 4939.932 6497.339 4880.932 C 6478.339 4834.932 6457.339 4774.932 6426.339 4683.932 C 6416.339 4655.932 6392.339 4608.932 6372.339 4580.932 C 6352.339 4551.932 6336.339 4522.932 6336.339 4515.932 C 6336.339 4509.932 6327.339 4495.932 6316.339 4485.932 C 6305.339 4475.932 6296.339 4462.932 6296.339 4457.932 C 6296.339 4424.932 6056.339 4184.932 5996.339 4157.932 C 5982.339 4151.932 5944.339 4125.932 5911.339 4100.932 C 5830.339 4038.932 5800.339 4020.932 5778.339 4020.932 C 5767.339 4020.932 5753.339 4013.932 5745.339 4004.932 C 5722.339 3975.932 5613.339 3929.932 5561.339 3925.932 C 5556.339 3924.932 5524.339 3914.932 5491.339 3901.932 C 5278.339 3820.932 4983.339 3823.932 4661.339 3909.932 C 4617.339 3921.932 4567.339 3935.932 4549.339 3939.932 C 4532.339 3944.932 4502.339 3957.932 4484.339 3968.932 C 4466.339 3979.932 4412.339 4008.932 4365.339 4032.932 C 4318.339 4056.932 4268.339 4086.932 4255.339 4098.932 C 4242.339 4111.932 4208.339 4134.932 4180.339 4150.932 C 4120.339 4183.932 3944.339 4349.932 3914.339 4400.932 C 3902.339 4419.932 3878.339 4451.932 3861.339 4470.932 C 3811.339 4525.932 3728.339 4658.932 3710.339 4714.932 C 3701.339 4742.932 3689.339 4770.932 3684.339 4776.932 C 3680.339 4782.932 3660.339 4843.932 3641.339 4911.932 C 3622.339 4979.932 3602.339 5038.932 3598.339 5042.932 C 3587.339 5053.932 3478.339 5033.932 3450.339 5015.932 C 3422.339 4997.932 3417.339 4947.932 3440.339 4914.932 C 3448.339 4903.932 3464.339 4865.932 3475.339 4830.932 C 3487.339 4794.932 3502.339 4752.932 3510.339 4735.932 C 3518.339 4719.932 3541.339 4670.932 3560.339 4626.932 C 3580.339 4583.932 3609.339 4531.932 3624.339 4511.932 C 3639.339 4491.932 3657.339 4462.932 3664.339 4446.932 C 3675.339 4422.932 3700.339 4388.932 3761.339 4313.932 C 3843.339 4213.932 3947.339 4105.932 4011.339 4054.932 C 4031.339 4038.932 4066.339 4009.932 4088.339 3989.932 C 4110.339 3969.932 4145.339 3947.932 4165.339 3940.932 C 4185.339 3933.932 4224.339 3913.932 4251.339 3895.932 C 4306.339 3859.932 4373.339 3828.932 4455.339 3799.932 C 4485.339 3788.932 4517.339 3774.932 4525.339 3766.932 C 4534.339 3758.932 4591.339 3740.932 4651.339 3725.932 C 4756.339 3698.932 4800.339 3689.932 4911.339 3671.932 C 4982.339 3659.932 5271.339 3664.932 5288.339 3677.932 C 5295.339 3682.932 5308.339 3687.932 5316.339 3687.932 C 5341.339 3688.932 5431.339 3702.932 5439.339 3707.932 C 5443.339 3709.932 5459.339 3713.932 5474.339 3716.932 C 5489.339 3718.932 5510.339 3724.932 5521.339 3729.932 C 5532.339 3734.932 5610.339 3766.932 5694.339 3801.932 C 5779.339 3835.932 5864.339 3875.932 5884.339 3890.932 C 5904.339 3904.932 5941.339 3927.932 5966.339 3940.932 C 6023.339 3971.932 6120.339 4044.932 6166.339 4091.932 C 6185.339 4111.932 6221.339 4144.932 6245.339 4164.932 C 6269.339 4184.932 6301.339 4218.932 6317.339 4239.932 C 6332.339 4261.932 6354.339 4289.932 6366.339 4301.932 C 6402.339 4341.932 6471.339 4434.932 6484.339 4460.932 C 6491.339 4474.932 6508.339 4505.932 6522.339 4530.932 C 6561.339 4600.932 6665.339 4826.932 6670.339 4855.932 C 6673.339 4868.932 6677.339 4884.932 6680.339 4889.932 C 6686.339 4899.932 6721.339 5024.932 6737.339 5095.932 C 6754.339 5171.932 6774.339 5395.932 6771.339 5470.932 C 6766.339 5588.932 6746.339 5761.932 6735.339 5781.932 C 6730.339 5791.932 6719.339 5832.932 6711.339 5872.932 C 6692.339 5965.932 6645.339 6100.932 6602.339 6182.932 C 6551.339 6279.932 6515.339 6343.932 6496.339 6365.932 C 6486.339 6376.932 6475.339 6395.932 6472.339 6407.932 C 6454.339 6466.932 6271.339 6676.932 6164.339 6763.932 C 6129.339 6790.932 6079.339 6832.932 6052.339 6856.932 C 6026.339 6880.932 5999.339 6900.932 5994.339 6900.932 C 5989.339 6900.932 5971.339 6909.932 5955.339 6921.932 C 5939.339 6932.932 5926.339 6939.932 5926.339 6935.932 C 5926.339 6932.932 5911.339 6940.932 5894.339 6953.932 C 5802.339 7021.932 5576.339 7115.932 5451.339 7138.932 C 5397.339 7148.932 5312.339 7163.932 5157.339 7190.932 C 5103.339 7200.932 5093.339 7200.932 5026.339 7193.932 Z" style="stroke-width: 180px; stroke: rgb(0, 0, 0); stroke-miterlimit: 6; stroke-dashoffset: -1px; --darkreader-inline-stroke:#e8e6e3;" data-darkreader-inline-stroke=""></path>
    <path d="M 4962.744 5878.436 C 4884.442 5860.165 4821.8 5821.014 4748.718 5746.627 C 4673.027 5668.325 4631.265 5584.803 4619.52 5481.705 C 4610.385 5408.624 4632.57 5287.255 4659.976 5253.325 C 4669.111 5242.884 4687.382 5212.869 4699.127 5188.073 C 4746.108 5095.416 4845.291 5021.029 4971.879 4985.793 C 5038.436 4966.217 5063.232 4964.912 5140.229 4977.962 C 5189.82 4985.793 5248.546 5002.758 5270.732 5014.503 C 5349.034 5053.654 5424.726 5139.787 5473.012 5240.274 C 5533.044 5365.557 5540.874 5443.86 5503.028 5553.482 C 5461.267 5674.85 5445.606 5698.341 5360.779 5777.948 C 5300.748 5832.76 5265.512 5853.64 5205.48 5870.606 C 5121.958 5894.096 5041.046 5896.706 4962.744 5878.436 Z" style="stroke: rgb(0, 0, 0); stroke-width: 500px; --darkreader-inline-stroke:#e8e6e3;" data-darkreader-inline-stroke=""></path>
    <path d="M 3379.339 5580.932 C 3325.339 5548.932 3311.339 5509.932 3311.339 5395.932 C 3311.339 5304.932 3313.339 5292.932 3336.339 5262.932 C 3363.339 5225.932 3404.339 5200.932 3436.339 5200.932 C 3453.339 5200.932 3455.339 5197.932 3447.339 5181.932 C 3434.339 5158.932 3440.339 5126.932 3462.339 5093.932 C 3485.339 5057.932 3500.339 5077.932 3500.339 5144.932 C 3500.339 5196.932 3502.339 5200.932 3534.339 5217.932 C 3571.339 5237.932 3590.339 5267.932 3612.339 5342.932 C 3626.339 5387.932 3625.339 5395.932 3604.339 5463.932 C 3577.339 5549.932 3573.339 5556.932 3525.339 5581.932 C 3476.339 5605.932 3420.339 5605.932 3379.339 5580.932 Z"></path>
    <path d="M 6161.339 4648.932 C 6074.339 4507.932 5880.339 4328.932 5741.339 4261.932 C 5708.339 4246.932 5670.339 4221.932 5657.339 4206.932 C 5643.339 4192.932 5626.339 4180.932 5618.339 4180.932 C 5610.339 4180.932 5583.339 4169.932 5557.339 4155.932 C 5413.339 4079.932 5324.339 4055.932 5143.339 4044.932 C 5033.339 4037.932 5016.339 4030.932 5016.339 3994.932 C 5016.339 3975.932 5023.339 3970.932 5051.339 3964.932 C 5092.339 3957.932 5236.339 3966.932 5316.339 3982.932 C 5397.339 3997.932 5540.339 4054.932 5636.339 4109.932 C 5683.339 4136.932 5734.339 4160.932 5749.339 4164.932 C 5765.339 4168.932 5792.339 4186.932 5809.339 4204.932 C 5827.339 4223.932 5867.339 4254.932 5898.339 4274.932 C 5954.339 4309.932 6064.339 4414.932 6178.339 4541.932 C 6222.339 4590.932 6236.339 4612.932 6236.339 4636.932 C 6236.339 4653.932 6239.339 4682.932 6242.339 4699.932 C 6247.339 4725.932 6245.339 4730.932 6230.339 4730.932 C 6217.339 4729.932 6194.339 4702.932 6161.339 4648.932 Z"></path>
  </g>
</svg><style>@media (prefers-color-scheme: light) { :root { filter: none; } }
</style></svg>